<svg xmlns="http://www.w3.org/2000/svg" width="557" height="243" viewBox="0 0 557 243"><g><g><g><g><path fill="#ebebeb" d="M0 37h552v10H0z"/></g><g><path fill="#a1a1a1" d="M3 41h490v2H3z"/></g><g><path fill="#fff" d="M493 38a4 4 0 1 1 0 8 4 4 0 0 1 0-8z"/><path fill="none" stroke="#000" stroke-linecap="round" stroke-linejoin="round" stroke-miterlimit="50" stroke-width="4" d="M493 38a4 4 0 1 1 0 8 4 4 0 0 1 0-8z"/></g></g><g><g><path fill="#041608" d="M492 0h40v21h-40z"/></g><g><path fill="#041608" d="M498 14.343L500 20l-8 8v-8z"/></g><g><g><text dominant-baseline="text-before-edge" style="line-height:24px" fill="#fff" font-family="'Lato','Lato-Regular'" font-size="12" font-style="none" font-weight="400" transform="translate(501 6)"><tspan style="font-kerning:normal">90%</tspan></text></g></g></g><g><g><text dominant-baseline="text-before-edge" style="line-height:10px" fill="#2f302f" font-family="'Roboto','Roboto-Bold'" font-size="16" font-style="none" font-weight="700" transform="translate(0 6)"><tspan style="font-kerning:normal" letter-spacing=".4">Photoshop</tspan></text></g></g></g><g><g><g><path fill="#ebebeb" d="M1 102h552v10H1z"/></g><g><path fill="#a1a1a1" d="M4 106h520v2H4z"/></g><g><path fill="#fff" d="M518 103a4 4 0 1 1 0 8 4 4 0 0 1 0-8z"/><path fill="none" stroke="#000" stroke-linecap="round" stroke-linejoin="round" stroke-miterlimit="50" stroke-width="4" d="M518 103a4 4 0 1 1 0 8 4 4 0 0 1 0-8z"/></g></g><g><g><path fill="#041608" d="M517 65h40v21h-40z"/></g><g><path fill="#041608" d="M523 79.343L525 85l-8 8v-8z"/></g><g><g><text dominant-baseline="text-before-edge" style="line-height:24px" fill="#fff" font-family="'Lato','Lato-Regular'" font-size="12" font-style="none" font-weight="400" transform="translate(526 71)"><tspan style="font-kerning:normal">95%</tspan></text></g></g></g><g><g><text dominant-baseline="text-before-edge" style="line-height:10px" fill="#2f302f" font-family="'Roboto','Roboto-Bold'" font-size="16" font-style="none" font-weight="700" transform="translate(1 71)"><tspan style="font-kerning:normal" letter-spacing=".4">Branding</tspan></text></g></g></g><g><g><g><path fill="#ebebeb" d="M0 167h552v10H0z"/></g><g><path fill="#a1a1a1" d="M3 171h276v2H3z"/></g><g><path fill="#fff" d="M281 168a4 4 0 1 1 0 8 4 4 0 0 1 0-8z"/><path fill="none" stroke="#000" stroke-linecap="round" stroke-linejoin="round" stroke-miterlimit="50" stroke-width="4" d="M281 168a4 4 0 1 1 0 8 4 4 0 0 1 0-8z"/></g></g><g><g><path fill="#041608" d="M280 130h40v21h-40z"/></g><g><path fill="#041608" d="M286 144.343l2 5.657-8 8v-8z"/></g><g><g><text dominant-baseline="text-before-edge" style="line-height:24px" fill="#fff" font-family="'Lato','Lato-Regular'" font-size="12" font-style="none" font-weight="400" transform="translate(289 136)"><tspan style="font-kerning:normal">50%</tspan></text></g></g></g><g><g><text dominant-baseline="text-before-edge" style="line-height:10px" fill="#2f302f" font-family="'Roboto','Roboto-Bold'" font-size="16" font-style="none" font-weight="700" transform="translate(0 136)"><tspan style="font-kerning:normal" letter-spacing=".4">Photography</tspan></text></g></g></g><g><g><g><path fill="#ebebeb" d="M1 232h552v10H1z"/></g><g><path fill="#a1a1a1" d="M4 236h450v2H4z"/></g><g><path fill="#fff" d="M456 233a4 4 0 1 1 0 8 4 4 0 0 1 0-8z"/><path fill="none" stroke="#000" stroke-linecap="round" stroke-linejoin="round" stroke-miterlimit="50" stroke-width="4" d="M456 233a4 4 0 1 1 0 8 4 4 0 0 1 0-8z"/></g></g><g><g><path fill="#041608" d="M455 195h40v21h-40z"/></g><g><path fill="#041608" d="M461 209.343l2 5.657-8 8v-8z"/></g><g><g><text dominant-baseline="text-before-edge" style="line-height:24px" fill="#fff" font-family="'Lato','Lato-Regular'" font-size="12" font-style="none" font-weight="400" transform="translate(464 201)"><tspan style="font-kerning:normal">85%</tspan></text></g></g></g><g><g><text dominant-baseline="text-before-edge" style="line-height:10px" fill="#2f302f" font-family="'Roboto','Roboto-Bold'" font-size="16" font-style="none" font-weight="700" transform="translate(0 201)"><tspan style="font-kerning:normal" letter-spacing=".4">Web Design</tspan></text></g></g></g></g></svg>